#!OML:ASF F:\VICON\USERDATA\INSTALL\rory3\rory3.ASF
:FULLY-SPECIFIED
:DEGREES
4508
root -2.90166 17.3989 1.47247 12.5383 -41.9404 10.8943
lowerback 10.6752 -11.0273 -4.29303
upperback 3.49349 -15.1875 10.7603
thorax 2.12336 -8.21035 15.0521
lowerneck -22.1685 15.3559 -3.18349
upperneck 14.0512 23.3745 -7.68663
head 8.54151 10.0603 1.14121
rclavicle -1.02573e-013 4.77083e-014
rhumerus -60.5335 -42.2926 -9.0931
rradius 26.835
rwrist 11.6888
rhand -30.3826 -6.29376
rfingers 7.12502
rthumb -3.68693 -36.2416
lclavicle -1.02573e-013 4.77083e-014
lhumerus 55.2296 -13.5707 60.2769
lradius 30.447
lwrist -20.7759
lhand -26.5 25.0138
lfingers 7.12502
lthumb 0.0628366 54.9936
rfemur -50.0832 19.6084 -9.75998
rtibia 40.4839
rfoot -8.18948 9.42946
rtoes 6.27113
lfemur -23.2807 24.4592 -34.284
ltibia 28.7009
lfoot -19.1321 16.4748
ltoes -19.7451
4509
root -2.90352 17.4002 1.47236 12.5963 -41.8623 11.0318
lowerback 10.5923 -11.048 -4.35035
upperback 3.4845 -15.2243 10.8038
thorax 2.19906 -8.23766 15.1126
lowerneck -22.109 15.4169 -3.29513
upperneck 14.026 23.5124 -7.82273
head 8.53302 10.1089 1.12844
rclavicle 1.60618e-013 -3.33958e-014
rhumerus -60.7931 -42.4303 -8.8226
rradius 26.7469
rwrist 11.5157
rhand -30.2729 -6.36148
rfingers 7.12502
rthumb -3.58096 -36.3111
lclavicle 1.60618e-013 -3.33958e-014
lhumerus 55.3729 -13.5839 60.6025
lradius 30.3813
lwrist -21.02
lhand -26.59 24.4075
lfingers 7.12502
lthumb -0.0240954 54.3873
rfemur -50.191 19.4354 -9.86363
rtibia 40.5135
rfoot -8.20839 9.39865
rtoes 6.06823
lfemur -23.4093 24.3802 -34.4399
ltibia 28.6526
lfoot -19.1255 16.4144
ltoes -19.7949
4510
root -2.90576 17.4006 1.46883 12.5937 -41.7532 11.2412
lowerback 10.5022 -11.0842 -4.4619
upperback 3.48668 -15.2861 10.7966
thorax 2.29697 -8.27758 15.1394
lowerneck -22.1482 15.4894 -3.29266
upperneck 14.0923 23.6468 -7.93421
head 8.58146 10.1517 1.1222
rclavicle 9.22361e-014 -2.70347e-014
rhumerus -61.0931 -42.6437 -8.52902
rradius 26.5825
rwrist 11.6165
rhand -30.156 -6.38136
rfingers 7.12502
rthumb -3.46811 -36.3329
lclavicle 9.22361e-014 -2.70347e-014
lhumerus 55.4535 -13.5666 60.8105
lradius 30.3605
lwrist -21.1994
lhand -26.5295 23.4434
lfingers 7.12502
lthumb 0.0343762 53.4231
rfemur -50.2912 19.3092 -10.064
rtibia 40.5643
rfoot -8.28314 9.32848
rtoes 5.93662
lfemur -23.5348 24.2915 -34.6332
ltibia 28.6102
lfoot -19.0773 16.2883
ltoes -19.5962
4511
root -2.90942 17.4008 1.45986 12.6407 -41.6079 11.3167
lowerback 10.4716 -11.113 -4.52341
upperback 3.51335 -15.3319 10.7712
thorax 2.36541 -8.30617 15.1302
lowerneck -22.1717 15.546 -3.19144
upperneck 14.1331 23.7289 -8.05603
head 8.63023 10.1759 1.09234
rclavicle 4.21423e-014 -3.18055e-015
rhumerus -61.4956 -42.8597 -8.21271
rradius 26.4841
rwrist 11.9455
rhand -29.9803 -6.62856
rfingers 7.12502
rthumb -3.29848 -36.5828
lclavicle 4.21423e-014 -3.18055e-015
lhumerus 55.5082 -13.6593 60.6377
lradius 30.4536
lwrist -21.1235
lhand -26.4119 22.7679
lfingers 7.12502
lthumb 0.147949 52.7476
rfemur -50.3683 19.2974 -10.1719
rtibia 40.6196
rfoot -8.43845 9.14434
rtoes 5.36653
lfemur -23.6694 24.2442 -34.6947
ltibia 28.5822
lfoot -18.9566 16.1619
ltoes -19.5374
4512
root -2.91322 17.4007 1.44997 12.6929 -41.4304 11.3535
lowerback 10.4798 -11.1452 -4.629
upperback 3.52621 -15.3891 10.7974
thorax 2.43092 -8.3462 15.2157
lowerneck -22.0273 15.5603 -3.23079
upperneck 13.9245 23.7649 -8.2602
head 8.56068 10.1908 1.02161
rclavicle -6.99722e-014 8.74653e-015
rhumerus -61.6762 -43.0293 -7.95736
rradius 26.3666
rwrist 12.3333
rhand -29.9514 -6.56538
rfingers 7.12502
rthumb -3.27057 -36.52
lclavicle -6.99722e-014 8.74653e-015
lhumerus 55.4908 -13.6445 60.6014
lradius 30.525
lwrist -21.1826
lhand -26.5156 22.9196
lfingers 7.12502
lthumb 0.0477741 52.8994
rfemur -50.3891 19.2221 -10.1771
rtibia 40.666
rfoot -8.59345 8.97383
rtoes 4.5375
lfemur -23.7969 24.2343 -34.7273
ltibia 28.5939
lfoot -18.8568 16.0064
ltoes -19.6578
4513
root -2.91566 17.4029 1.44364 12.7799 -41.2433 11.2793
lowerback 10.4824 -11.1769 -4.61417
upperback 3.52149 -15.431 10.8375
thorax 2.4465 -8.37098 15.2534
lowerneck -21.9078 15.5774 -3.23633
upperneck 13.8302 23.8119 -8.46061
head 8.53846 10.2018 0.957983
rclavicle 8.66701e-014 -7.15625e-014
rhumerus -61.6502 -42.9867 -7.95366
rradius 26.2587
rwrist 12.3798
rhand -30.1121 -6.38823
rfingers 7.12502
rthumb -3.42573 -36.3405
lclavicle 8.66701e-014 -7.15625e-014
lhumerus 55.3633 -13.5921 60.7919
lradius 30.5626
lwrist -21.3117
lhand -26.6872 24.0922
lfingers 7.12502
lthumb -0.118006 54.0719
rfemur -50.3384 19.163 -10.0721
rtibia 40.6992
rfoot -8.74706 8.81918
rtoes 3.59234
lfemur -23.8665 24.1805 -34.6477
ltibia 28.6268
lfoot -18.812 15.9002
ltoes -19.7228
4514
root -2.91787 17.4059 1.439 12.8763 -41.0299 11.1581
lowerback 10.4525 -11.195 -4.52579
upperback 3.52902 -15.4467 10.8578
thorax 2.45761 -8.37774 15.2198
lowerneck -21.9984 15.579 -3.29573
upperneck 13.9652 23.849 -8.42627
head 8.58928 10.2045 0.993616
rclavicle 4.21423e-014 -5.96354e-014
rhumerus -61.6558 -42.888 -7.98273
rradius 26.2153
rwrist 12.2444
rhand -30.3022 -6.26524
rfingers 7.12502
rthumb -3.6093 -36.2144
lclavicle 4.21423e-014 -5.96354e-014
lhumerus 55.2161 -13.6376 60.8217
lradius 30.6815
lwrist -21.3101
lhand -26.7093 24.7936
lfingers 7.12502
lthumb -0.139341 54.7733
rfemur -50.2533 19.1074 -9.93736
rtibia 40.7327
rfoot -8.82266 8.6956
rtoes 3.69208
lfemur -23.88 24.0663 -34.4972
ltibia 28.6394
lfoot -18.7931 15.7672
ltoes -19.485
4515
root -2.91957 17.4069 1.43291 12.8133 -40.8487 11.2486
lowerback 10.3861 -11.1737 -4.55974
upperback 3.55877 -15.4195 10.7762
thorax 2.49994 -8.36128 15.1242
lowerneck -22.1067 15.5543 -3.38143
upperneck 14.1166 23.8293 -8.24724
head 8.62311 10.195 1.06729
rclavicle -3.10104e-014 3.18055e-015
rhumerus -61.8545 -42.8291 -7.92166
rradius 26.2424
rwrist 12.2595
rhand -30.3022 -6.33947
rfingers 7.12502
rthumb -3.60931 -36.2887
lclavicle -3.10104e-014 3.18055e-015
lhumerus 55.1547 -13.8455 60.5659
lradius 30.8125
lwrist -21.2327
lhand -26.6593 24.7397
lfingers 7.12502
lthumb -0.0910733 54.7194
rfemur -50.1545 19.001 -9.94577
rtibia 40.7693
rfoot -8.88832 8.60315
rtoes 3.48048
lfemur -23.8519 23.9863 -34.524
ltibia 28.6321
lfoot -18.7762 15.6128
ltoes -19.4183
4516
root -2.9213 17.4053 1.42736 12.6812 -40.6968 11.38
lowerback 10.2537 -11.14 -4.53113
upperback 3.64405 -15.3677 10.5859
thorax 2.57775 -8.32518 14.847
lowerneck -22.1496 15.5094 -3.29774
upperneck 14.1277 23.728 -8.1554
head 8.62773 10.1597 1.07365
rclavicle -3.97569e-014 2.70347e-014
rhumerus -62.2641 -42.9056 -7.74375
rradius 26.2515
rwrist 12.3569
rhand -30.24 -6.40242
rfingers 7.12502
rthumb -3.54927 -36.3526
lclavicle -3.97569e-014 2.70347e-014
lhumerus 55.1811 -14.1432 60.0319
lradius 30.9491
lwrist -20.916
lhand -26.6088 24.8097
lfingers 7.12502
lthumb -0.0422452 54.7894
rfemur -50.0339 18.9033 -9.97418
rtibia 40.8063
rfoot -8.91925 8.57052
rtoes 3.51438
lfemur -23.779 23.9799 -34.5718
ltibia 28.6133
lfoot -18.7715 15.4372
ltoes -19.445
4517
root -2.92492 17.4058 1.42265 12.6879 -40.4292 11.2862
lowerback 10.1441 -11.1605 -4.3478
upperback 3.69839 -15.3744 10.4864
thorax 2.61409 -8.31661 14.5993
lowerneck -22.2541 15.508 -3.23705
upperneck 14.2252 23.7179 -8.10362
head 8.6777 10.1506 1.0935
rclavicle -1.58233e-013 4.92986e-014
rhumerus -62.4796 -42.9967 -7.5729
rradius 26.2313
rwrist 12.471
rhand -30.421 -6.37331
rfingers 7.12502
rthumb -3.72406 -36.3205
lclavicle -1.58233e-013 4.92986e-014
lhumerus 55.0666 -14.2384 60.0852
lradius 30.9202
lwrist -20.9962
lhand -26.5908 25.0209
lfingers 7.12502
lthumb -0.0248479 55.0006
rfemur -49.8537 18.791 -9.78184
rtibia 40.8497
rfoot -9.01414 8.52663
rtoes 3.48295
lfemur -23.7303 23.9285 -34.4145
ltibia 28.6001
lfoot -18.6241 15.3302
ltoes -19.6588
4518
root -2.92661 17.4093 1.41669 12.6908 -39.9578 11.2275
lowerback 10.1783 -11.2546 -4.33555
upperback 3.64082 -15.496 10.5521
thorax 2.58692 -8.379 14.6782
lowerneck -22.2896 15.5744 -3.30142
upperneck 14.3209 23.8526 -8.14466
head 8.71838 10.1958 1.1161
rclavicle 1.27222e-014 -6.59965e-014
rhumerus -62.2007 -42.9542 -7.58015
rradius 26.2559
rwrist 12.3715
rhand -30.3954 -6.47563
rfingers 7.12502
rthumb -3.6993 -36.4233
lclavicle 1.27222e-014 -6.59965e-014
lhumerus 54.7617 -14.0639 60.829
lradius 30.6905
lwrist -21.6131
lhand -26.5936 25.085
lfingers 7.12502
lthumb -0.0275541 55.0647
rfemur -49.5921 18.5926 -9.60611
rtibia 40.9074
rfoot -9.17377 8.37491
rtoes 3.23641
lfemur -23.6513 23.6817 -34.2562
ltibia 28.5511
lfoot -18.4599 15.2244
ltoes -19.9429
